# Blender 3.4.1
# www.blender.org
o Cube
v 1.000000 1.000000 -1.000000
v 1.000000 -1.000000 -1.000000
v 1.000000 1.000000 1.000000
v 1.000000 -1.000000 1.000000
v -1.000000 1.000000 -1.000000
v -1.000000 -1.000000 -1.000000
v -1.000000 1.000000 1.000000
v -1.000000 -1.000000 1.000000
vn -0.0000 1.0000 -0.0000
vn -0.0000 -0.0000 1.0000
vn -1.0000 -0.0000 -0.0000
vn -0.0000 -1.0000 -0.0000
vn 1.0000 -0.0000 -0.0000
vn -0.0000 -0.0000 -1.0000
vt 0.000000 0.000000
vt -0.000000 1.000000
vt 1.000000 1.000000
vt 0.000000 -0.000000
vt 1.000000 0.000000
vt 0.000000 1.000000
vt 1.000000 1.000000
vt 0.000000 0.000000
vt 1.000000 1.000000
vt 1.000000 0.000000
vt 1.000000 0.000000
vt 0.000000 1.000000
vt -0.000000 0.000000
vt 1.000000 1.000000
vt 1.000000 0.000000
vt 0.000000 1.000000
s 0
f 5/11/1 3/6/1 1/1/1
f 3/6/2 8/15/2 4/8/2
f 7/14/3 6/13/3 8/15/3
f 2/5/4 8/16/4 6/13/4
f 1/2/5 4/10/5 2/4/5
f 5/12/6 2/5/6 6/13/6
f 5/11/1 7/14/1 3/6/1
f 3/6/2 7/14/2 8/15/2
f 7/14/3 5/12/3 6/13/3
f 2/5/4 4/9/4 8/16/4
f 1/2/5 3/7/5 4/10/5
f 5/12/6 1/3/6 2/5/6
